<?xml version="1.0" encoding="utf-8"?>
<!-- Generator: Adobe Illustrator 26.3.1, SVG Export Plug-In . SVG Version: 6.00 Build 0)  -->
<svg version="1.1" id="Name" xmlns="http://www.w3.org/2000/svg" xmlns:xlink="http://www.w3.org/1999/xlink" x="0px" y="0px"
	 viewBox="0 0 2005.06 408.35" style="enable-background:new 0 0 2005.06 408.35;" xml:space="preserve">
<style type="text/css">
	.st0{fill:#F1FC56;}
</style>
<path class="st0" d="M983.15,105.44l119.02,206.14c6.61,11.45,2.2,21.55,0,25.36c-2.2,3.81-8.75,12.68-21.96,12.68H842.17
	L983.15,105.44 M983.15,12.79L761.94,395.95h318.27c55.19,0,89.68-59.74,62.08-107.53L983.15,12.79L983.15,12.79z"/>
<path class="st0" d="M636.86,349.5c-3.38,0.24-6.79,0.36-10.23,0.36c-80.08,0-145.24-65.16-145.24-145.26S546.55,59.35,626.63,59.35
	c0.62,0,1.25,0,1.87,0.02h123.06c-33.54-28.88-77.2-46.35-124.94-46.35c-105.8,0-191.56,85.78-191.56,191.58
	c0,52.89,21.43,100.79,56.11,135.47c34.66,34.66,82.54,56.11,135.45,56.11c47.94,0,91.74-17.6,125.34-46.69H636.86z"/>
<path class="st0" d="M1478.2,59.35l-225,225V106.51c0-26,21.15-47.15,47.15-47.15H1478.2 M1535.9,13.03h-235.54
	c-51.63,0-93.48,41.85-93.48,93.48v289.68l344.88-344.88C1565.88,37.18,1555.87,13.03,1535.9,13.03L1535.9,13.03z"/>
<g>
	<path class="st0" d="M1536.99,393.36c-6.43,0-12.83-2.66-17.41-7.87l-157.05-178.74c-8.44-9.61-7.5-24.24,2.11-32.69
		c9.61-8.44,24.25-7.5,32.69,2.11l157.05,178.74c8.44,9.61,7.5,24.24-2.11,32.69C1547.87,391.46,1542.42,393.36,1536.99,393.36z"/>
</g>
<g>
	<path class="st0" d="M22.82,395.71L22.82,395.71l0-358.76c0-10.36,6.5-19.72,16.19-23.29c9.63-3.55,20.58-0.68,27.25,7.15
		L335.13,336.4V59.35c0-25.58,20.74-46.33,46.33-46.33h0v339.29c0,17.26-10.07,32.44-25.66,38.68c-14.95,5.98-31.88,2.22-43.12-9.58
		l-0.86-0.96L69.15,95.64v253.75C69.15,374.97,48.41,395.71,22.82,395.71z"/>
</g>
<path class="st0" d="M602.11,232.33h-40.88c-13.54,0-24.53-10.98-24.53-24.53v0c0-13.54,10.98-24.53,24.53-24.53h40.88
	c13.54,0,24.53,10.98,24.53,24.53v0C626.64,221.35,615.66,232.33,602.11,232.33z"/>
<path class="st0" d="M1800.73,349.26c-3.38,0.24-6.79,0.36-10.23,0.36c-80.08,0-145.26-65.16-145.26-145.26
	c0-80.08,65.18-145.26,145.26-145.26c1.25,0,2.5,0.02,3.75,0.04h121.21c-33.56-28.9-77.22-46.37-124.96-46.37
	c-105.8,0-191.58,85.78-191.58,191.58c0,52.89,21.45,100.79,56.11,135.47c34.68,34.66,82.58,56.11,135.47,56.11
	c47.92,0,91.72-17.6,125.34-46.69H1800.73z"/>
<path class="st0" d="M1765.98,232.09h-40.88c-13.54,0-24.53-10.98-24.53-24.53v0c0-13.54,10.98-24.53,24.53-24.53h40.88
	c13.54,0,24.53,10.98,24.53,24.53v0C1790.5,221.11,1779.52,232.09,1765.98,232.09z"/>
<path class="st0" d="M1974.68,395.76L1974.68,395.76c-12.84,0-23.25-10.41-23.25-23.25v0c0-12.84,10.41-23.25,23.25-23.25l0,0
	c12.84,0,23.25,10.41,23.25,23.25v0C1997.92,385.35,1987.52,395.76,1974.68,395.76z"/>
</svg>
